<svg width="16" height="16" viewBox="0 0 16 16" fill="none" xmlns="http://www.w3.org/2000/svg">
<path d="M12 2.66666H6.66665C5.93027 2.66666 5.33331 3.26361 5.33331 3.99999V9.33332C5.33331 10.0697 5.93027 10.6667 6.66665 10.6667H12C12.7364 10.6667 13.3333 10.0697 13.3333 9.33332V3.99999C13.3333 3.26361 12.7364 2.66666 12 2.66666Z" stroke="#AAAAAA" stroke-linecap="round" stroke-linejoin="round"/>
<path d="M10.6667 10.6667V12C10.6667 12.3536 10.5262 12.6928 10.2762 12.9428C10.0261 13.1929 9.68698 13.3333 9.33335 13.3333H4.00002C3.6464 13.3333 3.30726 13.1929 3.05721 12.9428C2.80716 12.6928 2.66669 12.3536 2.66669 12V6.66668C2.66669 6.31305 2.80716 5.97392 3.05721 5.72387C3.30726 5.47382 3.6464 5.33334 4.00002 5.33334H5.33335" stroke="#AAAAAA" stroke-linecap="round" stroke-linejoin="round"/>
<rect x="9" y="4" width="1" height="5" rx="0.5" fill="#AAAAAA"/>
<rect x="12" y="6" width="1" height="5" rx="0.5" transform="rotate(90 12 6)" fill="#AAAAAA"/>
</svg>
