<svg width="16" height="16" viewBox="0 0 16 16" fill="none" xmlns="http://www.w3.org/2000/svg">
<path fill-rule="evenodd" clip-rule="evenodd" d="M5 7.00559C4 7.00559 3.76869 7.17416 3.46863 7.47421C3.16857 7.77427 3 8.18124 3 8.60559V13.4742C3 13.8986 3.16857 14.3055 3.46863 14.6056C3.76869 14.9056 4.17565 15.0742 4.6 15.0742H12.3881C12.8124 15.0742 13.2194 14.9056 13.5195 14.6056C13.8195 14.3055 13.9881 13.8986 13.9881 13.4742V8.60559C13.9881 8.18124 13.8195 7.77427 13.5195 7.47421C13.2194 7.17416 12.8124 7.00558 12.3881 7.00558L5 7.00559ZM4.49998 8C4.22384 8 3.99998 8.22385 3.99998 8.5V13.5C3.99998 13.7761 4.22384 14 4.49998 14H12.5C12.7761 14 13 13.7761 13 13.5V8.5C13 8.22385 12.7761 8 12.5 8H4.49998Z" fill="#AAAAAA"/>
<path d="M5 7.5V6C5 4.34315 6.34315 3 8 3H9.72727C10.9825 3 12 4.01753 12 5.27273V5.27273" stroke="#AAAAAA" stroke-linecap="round"/>
</svg>
