<svg width="16" height="16" viewBox="0 0 16 16" fill="none" xmlns="http://www.w3.org/2000/svg">
<path d="M3.46863 7.47421C3.76869 7.17416 4 7.00559 5 7.00559L12.3881 7.00558C12.8124 7.00558 13.2194 7.17416 13.5195 7.47421C13.8195 7.77427 13.9881 8.18124 13.9881 8.60559V13.4742C13.9881 13.8986 13.8195 14.3055 13.5195 14.6056C13.2194 14.9056 12.8124 15.0742 12.3881 15.0742H4.6C4.17565 15.0742 3.76869 14.9056 3.46863 14.6056C3.16857 14.3055 3 13.8986 3 13.4742V8.60559C3 8.18124 3.16857 7.77427 3.46863 7.47421Z" fill="#AAAAAA"/>
<path d="M5 7.5V6C5 4.34315 6.34315 3 8 3H9C10.6569 3 12 4.34315 12 6V7.27273" stroke="#AAAAAA" stroke-linecap="round"/>
</svg>
