<svg width="20" height="20" viewBox="0 0 20 20" fill="none" xmlns="http://www.w3.org/2000/svg">
<path d="M18.9317 8.45998L16.665 6.19329C16.4606 5.98943 16.1837 5.87494 15.895 5.87494C15.6063 5.87494 15.3294 5.98943 15.125 6.19329L5.5 15.821V19.625H9.30394L18.9317 9.99998C19.1356 9.79558 19.25 9.51867 19.25 9.22998C19.25 8.94129 19.1356 8.66438 18.9317 8.45998ZM8.734 18.25H6.875V16.391L13.365 9.90029L15.2247 11.7593L8.734 18.25ZM16.1975 10.7872L14.3385 8.92817L15.8971 7.3696L17.7561 9.2286L16.1975 10.7872Z" fill="#444444"/>
<path d="M6.1875 10.6875H7.5625V5.875H9.625V4.5H4.125V5.875H6.1875V10.6875Z" fill="#444444"/>
<path d="M4.125 12.75H1.375V1.75H12.375V4.5H13.75V1.75C13.75 1.38533 13.6051 1.03559 13.3473 0.777728C13.0894 0.519866 12.7397 0.375 12.375 0.375H1.375C1.01033 0.375 0.660591 0.519866 0.402728 0.777728C0.144866 1.03559 0 1.38533 0 1.75V12.75C0 13.1147 0.144866 13.4644 0.402728 13.7223C0.660591 13.9801 1.01033 14.125 1.375 14.125H4.125V12.75Z" fill="#444444"/>
</svg>
