<svg width="16" height="22" viewBox="0 0 16 22" fill="none" xmlns="http://www.w3.org/2000/svg">
<path fill-rule="evenodd" clip-rule="evenodd" d="M1.71936 10.3402L5.80561 12.3326C5.97895 12.4165 6.12221 12.5518 6.21585 12.7201C6.30948 12.8884 6.34895 13.0815 6.32886 13.273C6.30876 13.4645 6.2301 13.6452 6.10358 13.7904C5.97706 13.9356 5.80884 14.0383 5.62186 14.0844L1.21186 15.1842C1.08219 15.2163 0.947176 15.2204 0.815821 15.1961C0.684466 15.1719 0.559798 15.1199 0.450144 15.0436C0.34049 14.9673 0.248374 14.8685 0.179949 14.7538C0.111525 14.6391 0.068366 14.5111 0.0533564 14.3784C-0.0828968 13.1997 0.042586 12.0055 0.420856 10.881C0.463511 10.7548 0.532606 10.6391 0.623528 10.5418C0.714449 10.4444 0.825102 10.3676 0.948094 10.3164C1.07109 10.2652 1.20358 10.2408 1.33674 10.245C1.46989 10.2491 1.60063 10.2816 1.72023 10.3402H1.71936Z" fill="#444444"/>
<path fill-rule="evenodd" clip-rule="evenodd" d="M3.35565 18.7525L6.39715 15.375C6.5256 15.2317 6.69506 15.1315 6.88249 15.088C7.06991 15.0445 7.2662 15.0597 7.44463 15.1317C7.62306 15.2038 7.77498 15.329 7.8797 15.4904C7.98442 15.6518 8.03687 15.8416 8.02991 16.0339L7.87153 20.5786C7.86692 20.7122 7.8338 20.8433 7.7744 20.963C7.715 21.0828 7.63069 21.1885 7.52712 21.273C7.42354 21.3575 7.30311 21.4189 7.17387 21.4531C7.04464 21.4872 6.90959 21.4934 6.77778 21.4711C5.60913 21.274 4.49765 20.8239 3.52103 20.1525C3.41101 20.0769 3.31841 19.9787 3.24941 19.8645C3.18042 19.7502 3.13663 19.6225 3.12097 19.49C3.10531 19.3574 3.11815 19.2231 3.15863 19.0959C3.1991 18.9687 3.26627 18.8516 3.35565 18.7525Z" fill="#444444"/>
<path fill-rule="evenodd" clip-rule="evenodd" d="M10.5684 14.2567L14.8909 15.662C15.0179 15.7031 15.1346 15.7708 15.2333 15.8607C15.332 15.9506 15.4104 16.0605 15.4631 16.1831C15.5159 16.3057 15.5419 16.4382 15.5393 16.5717C15.5367 16.7051 15.5057 16.8365 15.4482 16.957C14.9381 18.0267 14.2005 18.9722 13.287 19.7272C13.184 19.8124 13.064 19.8745 12.9351 19.9095C12.8061 19.9445 12.6712 19.9516 12.5393 19.9302C12.4074 19.9088 12.2816 19.8595 12.1703 19.7856C12.059 19.7116 11.9648 19.6148 11.894 19.5015L9.48423 15.6445C9.38185 15.4815 9.3322 15.2909 9.34205 15.0986C9.3519 14.9064 9.42076 14.7218 9.53927 14.5701C9.65777 14.4184 9.82016 14.307 10.0043 14.2509C10.1885 14.1948 10.3854 14.1968 10.5684 14.2567Z" fill="#444444"/>
<path fill-rule="evenodd" clip-rule="evenodd" d="M14.9642 11.4987L10.5936 12.7517C10.4087 12.8049 10.212 12.7999 10.0301 12.7373C9.84826 12.6748 9.69007 12.5577 9.57707 12.4021C9.46407 12.2464 9.40174 12.0598 9.39857 11.8674C9.39539 11.6751 9.45152 11.4865 9.55932 11.3272L12.1021 7.55773C12.1764 7.44734 12.2734 7.35407 12.3866 7.28413C12.4999 7.21419 12.6267 7.16919 12.7587 7.15213C12.8907 7.13507 13.0248 7.14635 13.152 7.18521C13.2793 7.22407 13.3969 7.28962 13.4968 7.37748C14.3868 8.1618 15.0928 9.13279 15.5644 10.2212C15.6179 10.3437 15.6445 10.4761 15.6427 10.6097C15.6408 10.7433 15.6105 10.875 15.5536 10.9959C15.4968 11.1169 15.4149 11.2243 15.3132 11.311C15.2115 11.3977 15.0926 11.4617 14.9642 11.4987Z" fill="#444444"/>
<path fill-rule="evenodd" clip-rule="evenodd" d="M4.75215 0.893759C3.97972 1.10047 3.22787 1.37754 2.50603 1.72151C2.38959 1.77726 2.28594 1.8565 2.20159 1.95423C2.11724 2.05197 2.05401 2.16609 2.01588 2.28943C1.97776 2.41278 1.96555 2.54267 1.98003 2.67095C1.99451 2.79924 2.03536 2.92315 2.10003 3.03488L6.37178 10.4339C6.47456 10.613 6.63366 10.753 6.82432 10.8323C7.01498 10.9116 7.22649 10.9256 7.42594 10.8722C7.6254 10.8188 7.8016 10.701 7.92713 10.537C8.05266 10.3731 8.12048 10.1722 8.12003 9.96576V1.42138C8.12016 1.2923 8.09361 1.16459 8.04203 1.04626C7.99045 0.927935 7.91496 0.821551 7.8203 0.733794C7.72564 0.646037 7.61386 0.578801 7.49197 0.53631C7.37008 0.49382 7.24073 0.476992 7.11203 0.486884C6.31462 0.550111 5.52469 0.686306 4.75215 0.893759Z" fill="#444444"/>
</svg>
