<svg width="23" height="23" viewBox="0 0 23 23" fill="none" xmlns="http://www.w3.org/2000/svg">
<path d="M19.4062 12.0463V11.5V10.9466L20.7862 9.73907C21.0406 9.51485 21.2075 9.20793 21.2575 8.87254C21.3075 8.53715 21.2373 8.19489 21.0593 7.90625L19.3631 5.03125C19.2371 4.81294 19.0558 4.63161 18.8376 4.50546C18.6193 4.37931 18.3717 4.31276 18.1197 4.3125C17.9634 4.31131 17.8081 4.33558 17.6597 4.38438L15.9131 4.97375C15.6115 4.77337 15.297 4.59328 14.9715 4.43469L14.605 2.62344C14.5392 2.29253 14.3592 1.99528 14.0964 1.78373C13.8336 1.57217 13.5048 1.45979 13.1675 1.46625H9.80372C9.46641 1.45979 9.13757 1.57217 8.87477 1.78373C8.61196 1.99528 8.43194 2.29253 8.36622 2.62344L7.99966 4.43469C7.67186 4.59325 7.35491 4.77333 7.05091 4.97375L5.34028 4.35563C5.19028 4.31654 5.03494 4.30198 4.88028 4.3125C4.6282 4.31276 4.38061 4.37931 4.16237 4.50546C3.94412 4.63161 3.76288 4.81294 3.63684 5.03125L1.94059 7.90625C1.77283 8.19446 1.71049 8.53204 1.76425 8.86116C1.81801 9.19028 1.98453 9.49047 2.23528 9.71031L3.59372 10.9538V12.0534L2.23528 13.2609C1.97744 13.4823 1.80637 13.7879 1.75242 14.1234C1.69848 14.4589 1.76514 14.8027 1.94059 15.0938L3.63684 17.9688C3.76288 18.1871 3.94412 18.3684 4.16237 18.4945C4.38061 18.6207 4.6282 18.6872 4.88028 18.6875C5.0365 18.6887 5.19187 18.6644 5.34028 18.6156L7.08684 18.0263C7.38839 18.2266 7.70294 18.4067 8.02841 18.5653L8.39497 20.3766C8.46069 20.7075 8.64071 21.0047 8.90352 21.2163C9.16632 21.4278 9.49516 21.5402 9.83247 21.5338H13.225C13.5623 21.5402 13.8911 21.4278 14.1539 21.2163C14.4167 21.0047 14.5967 20.7075 14.6625 20.3766L15.029 18.5653C15.3568 18.4068 15.6738 18.2267 15.9778 18.0263L17.7172 18.6156C17.8656 18.6644 18.0209 18.6887 18.1772 18.6875C18.4292 18.6872 18.6768 18.6207 18.8951 18.4945C19.1133 18.3684 19.2945 18.1871 19.4206 17.9688L21.0593 15.0938C21.2271 14.8055 21.2894 14.468 21.2357 14.1388C21.1819 13.8097 21.0154 13.5095 20.7647 13.2897L19.4062 12.0463ZM18.1197 17.25L15.6543 16.4163C15.0772 16.9051 14.4177 17.2872 13.7065 17.5447L13.1962 20.125H9.80372L9.29341 17.5734C8.5879 17.3086 7.93189 16.9272 7.35278 16.445L4.88028 17.25L3.18403 14.375L5.13903 12.65C5.00613 11.906 5.00613 11.1443 5.13903 10.4003L3.18403 8.625L4.88028 5.75L7.34559 6.58375C7.9227 6.09492 8.58228 5.71281 9.29341 5.45532L9.80372 2.875H13.1962L13.7065 5.42657C14.412 5.69137 15.068 6.07282 15.6472 6.555L18.1197 5.75L19.8159 8.625L17.8609 10.35C17.9938 11.094 17.9938 11.8557 17.8609 12.5997L19.8159 14.375L18.1197 17.25Z" fill="#444444"/>
<path d="M11.5 15.8125C10.6471 15.8125 9.81329 15.5596 9.1041 15.0857C8.39492 14.6119 7.84217 13.9383 7.51577 13.1503C7.18937 12.3623 7.10397 11.4952 7.27037 10.6587C7.43676 9.82213 7.84749 9.05372 8.4506 8.4506C9.05372 7.84749 9.82213 7.43676 10.6587 7.27037C11.4952 7.10397 12.3623 7.18937 13.1503 7.51577C13.9383 7.84217 14.6119 8.39492 15.0857 9.1041C15.5596 9.81329 15.8125 10.6471 15.8125 11.5C15.8183 12.0679 15.7107 12.6313 15.496 13.1571C15.2813 13.6829 14.9639 14.1606 14.5623 14.5623C14.1606 14.9639 13.6829 15.2813 13.1571 15.496C12.6313 15.7107 12.0679 15.8183 11.5 15.8125ZM11.5 8.625C11.12 8.61615 10.7422 8.68446 10.3894 8.82581C10.0366 8.96716 9.71611 9.17861 9.44736 9.44736C9.17861 9.71611 8.96716 10.0366 8.82581 10.3894C8.68446 10.7422 8.61615 11.12 8.625 11.5C8.61615 11.88 8.68446 12.2578 8.82581 12.6106C8.96716 12.9634 9.17861 13.2839 9.44736 13.5526C9.71611 13.8214 10.0366 14.0328 10.3894 14.1742C10.7422 14.3155 11.12 14.3839 11.5 14.375C11.88 14.3839 12.2578 14.3155 12.6106 14.1742C12.9634 14.0328 13.2839 13.8214 13.5526 13.5526C13.8214 13.2839 14.0328 12.9634 14.1742 12.6106C14.3155 12.2578 14.3839 11.88 14.375 11.5C14.3839 11.12 14.3155 10.7422 14.1742 10.3894C14.0328 10.0366 13.8214 9.71611 13.5526 9.44736C13.2839 9.17861 12.9634 8.96716 12.6106 8.82581C12.2578 8.68446 11.88 8.61615 11.5 8.625Z" fill="#444444"/>
</svg>
