<svg width="14" height="15" viewBox="0 0 14 15" fill="none" xmlns="http://www.w3.org/2000/svg">
<path fill-rule="evenodd" clip-rule="evenodd" d="M6.29107 13.7078C6.19795 13.6149 6.12408 13.5045 6.07367 13.3831C6.02326 13.2616 5.99731 13.1314 5.99731 12.9998C5.99731 12.8683 6.02326 12.7381 6.07367 12.6166C6.12408 12.4951 6.19795 12.3848 6.29107 12.2919L11.5845 7.0005L6.29107 1.70908C6.1981 1.61611 6.12436 1.50575 6.07405 1.38428C6.02373 1.26281 5.99784 1.13263 5.99784 1.00115C5.99784 0.869681 6.02373 0.739495 6.07405 0.618029C6.12436 0.496563 6.1981 0.386197 6.29107 0.293231C6.38404 0.200266 6.4944 0.126521 6.61587 0.0762084C6.73733 0.0258957 6.86752 -2.59166e-09 6.99899 0C7.13047 2.59165e-09 7.26065 0.0258957 7.38212 0.0762084C7.50358 0.126521 7.61395 0.200266 7.70692 0.293231L13.7063 6.29258C13.7994 6.38546 13.8733 6.4958 13.9237 6.61728C13.9741 6.73875 14 6.86898 14 7.0005C14 7.13202 13.9741 7.26225 13.9237 7.38373C13.8733 7.5052 13.7994 7.61554 13.7063 7.70842L7.70692 13.7078C7.61403 13.8009 7.50369 13.8748 7.38222 13.9252C7.26074 13.9756 7.13051 14.0015 6.99899 14.0015C6.86747 14.0015 6.73724 13.9756 6.61577 13.9252C6.49429 13.8748 6.38395 13.8009 6.29107 13.7078Z" fill="#401D68"/>
<path fill-rule="evenodd" clip-rule="evenodd" d="M0 7.0005C0 6.73531 0.105346 6.48099 0.292861 6.29347C0.480377 6.10596 0.734703 6.00061 0.999891 6.00061H10.9988C11.264 6.00061 11.5183 6.10596 11.7058 6.29347C11.8933 6.48099 11.9987 6.73531 11.9987 7.0005C11.9987 7.26569 11.8933 7.52002 11.7058 7.70753C11.5183 7.89505 11.264 8.00039 10.9988 8.00039H0.999891C0.734703 8.00039 0.480377 7.89505 0.292861 7.70753C0.105346 7.52002 0 7.26569 0 7.0005Z" fill="#401D68"/>
</svg>
