<svg width="10" height="12" viewBox="0 0 10 12" fill="none" xmlns="http://www.w3.org/2000/svg">
<path fill-rule="evenodd" clip-rule="evenodd" d="M2.3335 12C1.60016 12 1.00016 11.4 1.00016 10.6667V4.33333C1.00016 3.6 1.60016 3 2.3335 3H7.66683C8.40016 3 9.00016 3.6 9.00016 4.33333V10.6667C9.00016 11.4 8.40016 12 7.66683 12H2.3335ZM7.3335 0.666667H9.00016C9.36683 0.666667 9.66683 0.966667 9.66683 1.33333C9.66683 1.7 9.36683 2 9.00016 2H1.00016C0.633496 2 0.333496 1.7 0.333496 1.33333C0.333496 0.966667 0.633496 0.666667 1.00016 0.666667H2.66683L3.14016 0.193333C3.26016 0.0733333 3.4335 0 3.60683 0H6.3935C6.56683 0 6.74016 0.0733333 6.86016 0.193333L7.3335 0.666667ZM2.75 4C2.33579 4 2 4.33579 2 4.75V10.25C2 10.6642 2.33579 11 2.75 11H7.25C7.66421 11 8 10.6642 8 10.25V4.75C8 4.33579 7.66421 4 7.25 4H2.75Z" fill="#AAAAAA"/>
</svg>
